<mxfile host="Electron" modified="2024-05-13T20:29:32.685Z" agent="Mozilla/5.0 (Windows NT 10.0; Win64; x64) AppleWebKit/537.36 (KHTML, like Gecko) draw.io/24.4.0 Chrome/120.0.6099.109 Electron/28.1.0 Safari/537.36" etag="j83lA6rx5Pka_UuUcvNc" version="24.4.0" type="device">
  <diagram name="Pagina-1" id="QI2gKdlKlqPeXvp3Vsb9">
    <mxGraphModel dx="1403" dy="337" grid="1" gridSize="10" guides="1" tooltips="1" connect="1" arrows="1" fold="1" page="1" pageScale="1" pageWidth="827" pageHeight="1169" math="0" shadow="0">
      <root>
        <mxCell id="0" />
        <mxCell id="1" parent="0" />
        <mxCell id="TJHUJ5yDJH3Zewi4uw6C-1" value="&lt;font style=&quot;font-size: 8px;&quot;&gt;Punteggio&lt;/font&gt;" style="text;html=1;align=center;verticalAlign=middle;whiteSpace=wrap;rounded=1;strokeColor=none;" parent="1" vertex="1">
          <mxGeometry x="-288.56" y="425.18" width="49" height="23" as="geometry" />
        </mxCell>
        <mxCell id="TJHUJ5yDJH3Zewi4uw6C-2" style="edgeStyle=orthogonalEdgeStyle;rounded=0;orthogonalLoop=1;jettySize=auto;html=1;exitX=0;exitY=0.25;exitDx=0;exitDy=0;endArrow=oval;endFill=0;" parent="1" edge="1">
          <mxGeometry relative="1" as="geometry">
            <mxPoint x="-261.68" y="406.18" as="targetPoint" />
            <mxPoint x="-241.68" y="405.95" as="sourcePoint" />
            <Array as="points">
              <mxPoint x="-251.68" y="406.18" />
            </Array>
          </mxGeometry>
        </mxCell>
        <mxCell id="TJHUJ5yDJH3Zewi4uw6C-3" value="&lt;font style=&quot;font-size: 8px;&quot;&gt;Nickname&lt;/font&gt;" style="text;html=1;align=center;verticalAlign=middle;whiteSpace=wrap;rounded=1;strokeColor=none;" parent="1" vertex="1">
          <mxGeometry x="-301.68" y="392.18" width="30" height="23.5" as="geometry" />
        </mxCell>
        <mxCell id="TJHUJ5yDJH3Zewi4uw6C-7" style="edgeStyle=orthogonalEdgeStyle;rounded=0;orthogonalLoop=1;jettySize=auto;html=1;exitX=0.053;exitY=1.011;exitDx=0;exitDy=0;endArrow=oval;endFill=0;exitPerimeter=0;" parent="1" edge="1">
          <mxGeometry relative="1" as="geometry">
            <mxPoint x="-238.56" y="438.85" as="targetPoint" />
            <mxPoint x="-228.49999999999994" y="426.18" as="sourcePoint" />
            <Array as="points">
              <mxPoint x="-228.56" y="438.85" />
            </Array>
          </mxGeometry>
        </mxCell>
        <mxCell id="TJHUJ5yDJH3Zewi4uw6C-8" value="" style="curved=1;endArrow=oval;html=1;rounded=0;endFill=1;entryX=0.827;entryY=1.079;entryDx=0;entryDy=0;entryPerimeter=0;" parent="1" edge="1">
          <mxGeometry width="50" height="50" relative="1" as="geometry">
            <mxPoint x="-252.56" y="411.18" as="sourcePoint" />
            <mxPoint x="-223.56" y="391.234" as="targetPoint" />
            <Array as="points">
              <mxPoint x="-256.84000000000003" y="389.18" />
            </Array>
          </mxGeometry>
        </mxCell>
        <mxCell id="TJHUJ5yDJH3Zewi4uw6C-9" value="&lt;font style=&quot;font-size: 8px;&quot;&gt;Ora&lt;/font&gt;" style="text;html=1;align=center;verticalAlign=middle;whiteSpace=wrap;rounded=1;strokeColor=none;glass=0;" parent="1" vertex="1">
          <mxGeometry x="-304.6699999999999" y="365.25" width="50" height="15" as="geometry" />
        </mxCell>
        <mxCell id="TJHUJ5yDJH3Zewi4uw6C-10" value="&lt;font style=&quot;font-size: 8px;&quot;&gt;Data&lt;/font&gt;" style="text;html=1;align=center;verticalAlign=middle;whiteSpace=wrap;rounded=1;strokeColor=none;glass=0;" parent="1" vertex="1">
          <mxGeometry x="-306.6699999999999" y="351.26" width="50" height="15" as="geometry" />
        </mxCell>
        <mxCell id="TJHUJ5yDJH3Zewi4uw6C-11" style="edgeStyle=orthogonalEdgeStyle;rounded=0;orthogonalLoop=1;jettySize=auto;html=1;exitX=0;exitY=0;exitDx=0;exitDy=0;endArrow=oval;endFill=0;" parent="1" edge="1">
          <mxGeometry relative="1" as="geometry">
            <mxPoint x="-266.6699999999999" y="362.51" as="targetPoint" />
            <mxPoint x="-247.29000000000002" y="362.51" as="sourcePoint" />
            <Array as="points" />
          </mxGeometry>
        </mxCell>
        <mxCell id="TJHUJ5yDJH3Zewi4uw6C-12" style="edgeStyle=orthogonalEdgeStyle;rounded=0;orthogonalLoop=1;jettySize=auto;html=1;endArrow=oval;endFill=0;" parent="1" edge="1">
          <mxGeometry relative="1" as="geometry">
            <mxPoint x="-266.6699999999999" y="375.63" as="targetPoint" />
            <mxPoint x="-246.6699999999999" y="375.63" as="sourcePoint" />
            <Array as="points" />
          </mxGeometry>
        </mxCell>
        <mxCell id="TJHUJ5yDJH3Zewi4uw6C-13" value="&lt;p style=&quot;line-height: 110%;&quot;&gt;&lt;font style=&quot;font-size: 7px;&quot;&gt;DataCrea&lt;/font&gt;&lt;/p&gt;" style="ellipse;whiteSpace=wrap;html=1;" parent="1" vertex="1">
          <mxGeometry x="-254.6699999999999" y="358.13" width="36.12" height="20" as="geometry" />
        </mxCell>
        <mxCell id="TJHUJ5yDJH3Zewi4uw6C-14" value="" style="endArrow=none;html=1;rounded=0;" parent="1" edge="1">
          <mxGeometry width="50" height="50" relative="1" as="geometry">
            <mxPoint x="-236.74" y="398.13" as="sourcePoint" />
            <mxPoint x="-236.74" y="378.13" as="targetPoint" />
          </mxGeometry>
        </mxCell>
        <mxCell id="TJHUJ5yDJH3Zewi4uw6C-15" value="Avatar" style="whiteSpace=wrap;html=1;align=center;" parent="1" vertex="1">
          <mxGeometry x="-241.68" y="396.18" width="60" height="30" as="geometry" />
        </mxCell>
        <mxCell id="TJHUJ5yDJH3Zewi4uw6C-18" value="&lt;font style=&quot;font-size: 8px;&quot;&gt;Ora&lt;/font&gt;" style="text;html=1;align=center;verticalAlign=middle;whiteSpace=wrap;rounded=1;strokeColor=none;glass=0;" parent="1" vertex="1">
          <mxGeometry x="-254.66999999999987" y="459" width="50" height="15" as="geometry" />
        </mxCell>
        <mxCell id="TJHUJ5yDJH3Zewi4uw6C-19" value="&lt;font style=&quot;font-size: 8px;&quot;&gt;Data&lt;/font&gt;" style="text;html=1;align=center;verticalAlign=middle;whiteSpace=wrap;rounded=1;strokeColor=none;glass=0;" parent="1" vertex="1">
          <mxGeometry x="-255.53999999999988" y="445" width="50" height="15" as="geometry" />
        </mxCell>
        <mxCell id="TJHUJ5yDJH3Zewi4uw6C-20" style="edgeStyle=orthogonalEdgeStyle;rounded=0;orthogonalLoop=1;jettySize=auto;html=1;exitX=0;exitY=0;exitDx=0;exitDy=0;endArrow=oval;endFill=0;" parent="1" edge="1">
          <mxGeometry relative="1" as="geometry">
            <mxPoint x="-217.00999999999985" y="455.04" as="targetPoint" />
            <mxPoint x="-197.63" y="455.04" as="sourcePoint" />
            <Array as="points" />
          </mxGeometry>
        </mxCell>
        <mxCell id="TJHUJ5yDJH3Zewi4uw6C-21" style="edgeStyle=orthogonalEdgeStyle;rounded=0;orthogonalLoop=1;jettySize=auto;html=1;endArrow=oval;endFill=0;" parent="1" edge="1">
          <mxGeometry relative="1" as="geometry">
            <mxPoint x="-217.0099999999999" y="469.04" as="targetPoint" />
            <mxPoint x="-197.00999999999988" y="469.04" as="sourcePoint" />
            <Array as="points" />
          </mxGeometry>
        </mxCell>
        <mxCell id="TJHUJ5yDJH3Zewi4uw6C-22" value="" style="endArrow=none;html=1;rounded=0;" parent="1" edge="1">
          <mxGeometry width="50" height="50" relative="1" as="geometry">
            <mxPoint x="-187.16" y="463.4800000000001" as="sourcePoint" />
            <mxPoint x="-187.16" y="426.18" as="targetPoint" />
          </mxGeometry>
        </mxCell>
        <mxCell id="TJHUJ5yDJH3Zewi4uw6C-23" value="&lt;p style=&quot;line-height: 110%;&quot;&gt;&lt;font style=&quot;font-size: 7px;&quot;&gt;DataFine&lt;/font&gt;&lt;/p&gt;" style="ellipse;whiteSpace=wrap;html=1;" parent="1" vertex="1">
          <mxGeometry x="-205.54" y="449.71999999999997" width="36.87" height="22.63" as="geometry" />
        </mxCell>
      </root>
    </mxGraphModel>
  </diagram>
</mxfile>
